<svg id="Layer_1" data-name="Layer 1" xmlns="http://www.w3.org/2000/svg" viewBox="0 0 593.81 576.34"><defs><style>.cls-1{fill:#ffa69e;}.cls-2{font-size:12px;font-family:Chalkduster;}.cls-3{letter-spacing:-0.04em;}.cls-4{letter-spacing:-0.12em;}.cls-5{letter-spacing:-0.02em;}.cls-6{letter-spacing:-0.04em;}.cls-7{letter-spacing:-0.03em;}.cls-8{letter-spacing:-0.14em;}.cls-9{letter-spacing:-0.02em;}.cls-10{letter-spacing:0em;}.cls-11{letter-spacing:0.02em;}.cls-12{letter-spacing:-0.05em;}.cls-13{letter-spacing:-0.08em;}.cls-14{letter-spacing:-0.04em;}.cls-15{letter-spacing:0.03em;}.cls-16{letter-spacing:-0.03em;}.cls-17{letter-spacing:0.02em;}.cls-18{letter-spacing:0.03em;}.cls-19{letter-spacing:0.01em;}.cls-20{letter-spacing:-0.07em;}.cls-21{letter-spacing:-0.01em;}.cls-22{letter-spacing:0.03em;}.cls-23{letter-spacing:-0.03em;}.cls-24{letter-spacing:-0.07em;}.cls-25{letter-spacing:0em;}.cls-26{letter-spacing:0.03em;}.cls-27{letter-spacing:0.03em;}.cls-28{letter-spacing:0.02em;}.cls-29{letter-spacing:-0.01em;}</style></defs><title>cost3</title><line class="cls-1" x1="59" y1="85.47" x2="59" y2="523.47"/><path d="M271.36,505.5a20.05,20.05,0,0,0,.2,4.91,11.89,11.89,0,0,1,.06,4.28,48.4,48.4,0,0,0-.05,7.56,11.67,11.67,0,0,1,0,2.17,24.15,24.15,0,0,0,0,2.55c0,1.22,0,2.69-.09,4.36a35.51,35.51,0,0,0-.1,6.47,51.21,51.21,0,0,1,.1,6.38,11,11,0,0,0,.07,2.61,7.23,7.23,0,0,1,0,2.74,6.26,6.26,0,0,0,0,2.4,3.73,3.73,0,0,1,.05,1.33,8.28,8.28,0,0,0,0,1.39c0,.27.08,1.88.09,3.58s0,3.61,0,4.24a15.22,15.22,0,0,1-.14,2.17,14.61,14.61,0,0,0-.1,2.75c0,2.08.06,2.22,0,4.25a26.28,26.28,0,0,0,.17,3.2c.25,2.08.54,2.65,1.35,2.66.53,0,.57,0,.91-.93l.37-.94v-3.49c0-1.92,0-4.52.06-5.78,0-1.44,0-2.67-.07-3.32a15.72,15.72,0,0,1,0-3.09c.07-1.13.12-2.42.12-2.86s0-3.48,0-6.76c0-4.42,0-6.28.08-7.24a11.07,11.07,0,0,0,0-2.51,34.87,34.87,0,0,1,0-5.83,14,14,0,0,0,.07-4.54c-.24-3.38-.39-5.88-.39-6.44,0-.25.08-1.14.17-2a27.25,27.25,0,0,0,.13-4.2c0-1.59,0-3.37.07-4.34a17.82,17.82,0,0,0,0-3c-.07-.87-.12-4.62-.15-10.24,0-8.66,0-8.89.15-9.79s.19-1.2.15-4.32a21.11,21.11,0,0,0-.2-4c-.18-.74-.2-1.84-.1-7.93.05-2.49,0-4.93,0-5.93a27.09,27.09,0,0,1,0-2.86,15.62,15.62,0,0,0,0-2.46,18.37,18.37,0,0,1,0-2.87c.06-.86.11-1.93.1-2.37s0-3.32-.06-6.41a63.28,63.28,0,0,1,.1-6.8,13.64,13.64,0,0,0,.08-2.17c0-.55-.07-1.66-.09-2.48s-.06-2.23-.09-3.14a7.25,7.25,0,0,1,.07-2.22,8.45,8.45,0,0,0,0-2.91c-.15-1.06-.14-12.86,0-14.54a29.19,29.19,0,0,0,0-4.23,98.64,98.64,0,0,1,0-10.55,54.53,54.53,0,0,0,0-8.33,26.53,26.53,0,0,1-.16-3.55c0-1.19,0-7.32,0-13.62s.06-12.43.1-13.63,0-3.14,0-4.46c-.06-1.52-.06-3.69,0-6.41,0-2.27.08-5.85.07-8s0-4.89.08-6.19.16-3.37.21-4.63.08-2.65.05-3.09-.12-1.55-.19-2.46a16.34,16.34,0,0,1-.05-2.75c.06-.82.1-51.62.05-62.24,0-.75,0-3.69.08-6.52s.05-5.7,0-6.41-.07-5.85-.06-11.46,0-11.66,0-13.45a29.12,29.12,0,0,1,.17-4.56,90.37,90.37,0,0,0,.31-9.69c0-2.46.07-5.6.13-7,.07-1.74.08-4.05,0-7.44,0-2.71-.07-8.53-.07-12.94s0-9.21-.08-10.67a20.91,20.91,0,0,1,.09-4,28.44,28.44,0,0,0,.13-4.21c-.1-8.85,0-18.08.2-19.33a10.24,10.24,0,0,0,0-3.35,1.63,1.63,0,0,1-.13-.57,3.1,3.1,0,0,0-.33-.94c-.3-.6-.4-.66-1-.66s-.7.05-1,.69a8.92,8.92,0,0,0-.6,3.05c0,.33,0,1.22-.1,2a17.18,17.18,0,0,0,0,3c.12,1.82.08,5.18-.1,9.64a20,20,0,0,0,0,3.32,35.84,35.84,0,0,1,.15,6.39c-.07,1.29-.17,2.76-.22,3.26s-.09,2.93-.09,5.39c0,3.9,0,4.55.15,5s.16,1.27.13,9c0,6.78,0,8.6-.16,9.39a33.5,33.5,0,0,0-.11,5.78,51.23,51.23,0,0,1-.08,7.56c-.13,2.06-.19,4-.19,6.3,0,1.82-.05,5.4-.11,7.95-.09,3.77-.08,5.3,0,8.24.15,4.58.16,7.2,0,9.8-.07,1.4-.1,7.8-.11,20,0,15.43,0,18.13-.14,19.47a36.52,36.52,0,0,0,.07,6.13c.1,1.27.19,15.13.14,19-.06,4.07,0,7.65.08,7.93a10.26,10.26,0,0,1,0,2.95c-.1.84-.24,13.92-.3,29.19,0,4.92-.08,10.22-.13,11.8-.15,4.78-.12,9.21.08,11.41a37.11,37.11,0,0,1,0,7.07,60.11,60.11,0,0,0-.09,8.26,27.19,27.19,0,0,1,0,4.32c-.11,2-.14,3.45-.1,4.75.05,1.5.24,10.58.24,11.48,0,.12,0,.64-.09,1.14a78.76,78.76,0,0,0,0,8.25,26.19,26.19,0,0,1,0,4.59,18.79,18.79,0,0,0,0,4.5c.19,1.6.2,1.36-.07,6.13a25.13,25.13,0,0,0,.14,4.86,7,7,0,0,1,0,2.67,7,7,0,0,0-.08,2.32,17.71,17.71,0,0,1-.05,2,10.47,10.47,0,0,0,.05,2.79,16.71,16.71,0,0,1,.07,4.66,55.41,55.41,0,0,0-.08,7.78,22.67,22.67,0,0,1,0,3.29,4.46,4.46,0,0,0,0,1.87c.36,1.52.37,1.57.12,2.42a4.77,4.77,0,0,0-.1,2.57,10.16,10.16,0,0,1,0,3.17,20.16,20.16,0,0,0,.05,5.19,4.85,4.85,0,0,1,0,2.54,9,9,0,0,0,0,3.32,29.68,29.68,0,0,1,0,5.74c-.11,1.12-.13,2.39-.11,6.51,0,3.46.07,5.28.14,5.64a1.9,1.9,0,0,1,0,1.08A12.08,12.08,0,0,0,271.36,505.5Z" transform="translate(-214.5 -54.03)"/><path d="M636.87,532.36a4.43,4.43,0,0,0-2.28.2,2.63,2.63,0,0,1-2,.06,10.44,10.44,0,0,0-3.5,0,2.55,2.55,0,0,1-1,0,5.18,5.18,0,0,0-1.18,0,12.23,12.23,0,0,1-2-.09,7.69,7.69,0,0,0-3-.1,11.08,11.08,0,0,1-3,.1,2.42,2.42,0,0,0-1.21.07,1.6,1.6,0,0,1-1.27,0,1.39,1.39,0,0,0-1.11,0,.82.82,0,0,1-.61.05,1.83,1.83,0,0,0-.65,0,15.09,15.09,0,0,1-1.66.09l-2,0a3.33,3.33,0,0,1-1-.14,3.17,3.17,0,0,0-1.27-.1,18.66,18.66,0,0,1-2,0,5.78,5.78,0,0,0-1.49.17c-1,.25-1.23.54-1.23,1.35,0,.53,0,.57.43.91l.44.37H606l2.68.06a7.21,7.21,0,0,0,1.54-.07,3.4,3.4,0,0,1,1.43,0c.53.07,1.13.12,1.33.12l3.13-.05a20.84,20.84,0,0,1,3.36.08,2.39,2.39,0,0,0,1.16,0,7.53,7.53,0,0,1,2.7,0c.42.24.9.26,2.11.07,1.56-.24,2.72-.39,3-.39a6.68,6.68,0,0,1,.91.17,6,6,0,0,0,2,.13,14.89,14.89,0,0,1,2,.07,3.88,3.88,0,0,0,1.4,0c.4-.07,2.13-.12,4.74-.15,4,0,4.12,0,4.54.15s.55.19,2,.15a4.66,4.66,0,0,0,1.86-.2c.34-.18.86-.2,3.68-.1a23.78,23.78,0,0,0,2.75,0,5.78,5.78,0,0,1,1.32,0,3.37,3.37,0,0,0,1.14,0,4,4,0,0,1,1.33,0,7.74,7.74,0,0,0,1.1.1l3-.06a13.65,13.65,0,0,1,3.15.1,3,3,0,0,0,1,.08c.25,0,.77-.07,1.15-.09s1-.06,1.45-.09c.63-.06.82,0,1,.07a1.87,1.87,0,0,0,1.35,0,49,49,0,0,1,6.74,0,6.29,6.29,0,0,0,2,0,21.25,21.25,0,0,1,4.89,0,11.77,11.77,0,0,0,3.86,0,5.77,5.77,0,0,1,1.64-.16l6.32,0c2.92,0,5.76.06,6.31.1a17.89,17.89,0,0,0,2.07,0,24.2,24.2,0,0,1,3,0c1,0,2.71.08,3.68.07s2.27,0,2.87.08l2.15.21a8.56,8.56,0,0,0,1.43,0l1.14-.19a3.52,3.52,0,0,1,1.27-.05c.38.06,23.93.1,28.85.05.35,0,1.71,0,3,.08s2.64.05,3,0,2.71-.07,5.31-.06h6.24a6.35,6.35,0,0,1,2.11.17,19.59,19.59,0,0,0,4.49.31c1.14,0,2.6.07,3.24.13a30.51,30.51,0,0,0,3.45,0c1.26,0,3.95-.07,6-.07s4.27,0,4.94-.08a4.54,4.54,0,0,1,1.86.09,6.19,6.19,0,0,0,2,.13,64.64,64.64,0,0,1,9,.2,2.25,2.25,0,0,0,1.55,0,.46.46,0,0,1,.27-.13,1.14,1.14,0,0,0,.44-.33c.27-.3.3-.4.3-1s0-.7-.32-1a2.35,2.35,0,0,0-1.41-.6,4.73,4.73,0,0,1-.92-.1,3.7,3.7,0,0,0-1.41,0,23.46,23.46,0,0,1-4.47-.1,4.25,4.25,0,0,0-1.53,0,7.83,7.83,0,0,1-3,.15c-.6-.07-1.28-.17-1.51-.22a23.37,23.37,0,0,0-2.5-.09c-1.8,0-2.1,0-2.33.15s-.59.16-4.16.13a25.6,25.6,0,0,1-4.36-.16,7.26,7.26,0,0,0-2.68-.11,11,11,0,0,1-3.5-.08,20.87,20.87,0,0,0-2.92-.19c-.84,0-2.5-.05-3.68-.11a26.9,26.9,0,0,0-3.83,0,24.45,24.45,0,0,1-4.53,0c-.65-.07-3.62-.1-9.26-.11-7.15,0-8.4,0-9-.14a8,8,0,0,0-2.85.07c-.59.1-7,.19-8.81.14a18.89,18.89,0,0,0-3.67.08,2.26,2.26,0,0,1-1.37,0c-.39-.1-6.45-.24-13.53-.3-2.28,0-4.74-.08-5.47-.13a24.59,24.59,0,0,0-5.28.08,8.05,8.05,0,0,1-3.28,0,13,13,0,0,0-3.83-.09,5.86,5.86,0,0,1-2,0,11.89,11.89,0,0,0-2.2-.1c-.7.05-4.91.24-5.32.24a4.35,4.35,0,0,1-.53-.09,16.92,16.92,0,0,0-3.82,0,5.68,5.68,0,0,1-2.13,0,4.11,4.11,0,0,0-2.09,0c-.74.19-.63.2-2.84-.07a5.47,5.47,0,0,0-2.25.14,1.57,1.57,0,0,1-1.24,0,1.57,1.57,0,0,0-1.08-.08,3.79,3.79,0,0,1-.93-.05,2.33,2.33,0,0,0-1.3.05,3.62,3.62,0,0,1-2.15.07,12,12,0,0,0-3.61-.08,4.93,4.93,0,0,1-1.53,0c-.52-.11-.62-.1-.86,0-.71.36-.73.37-1.12.12a1.12,1.12,0,0,0-1.2-.1,2.23,2.23,0,0,1-1.47,0,4.39,4.39,0,0,0-2.4,0,1.11,1.11,0,0,1-1.18,0,2,2,0,0,0-1.53,0,6.43,6.43,0,0,1-2.66,0,14.92,14.92,0,0,0-3-.11,16.18,16.18,0,0,0-2.61.14.44.44,0,0,1-.5,0A3.19,3.19,0,0,0,636.87,532.36Z" transform="translate(-214.5 -54.03)"/><path d="M238.5,532.36a2.35,2.35,0,0,0-1.64.2,1.4,1.4,0,0,1-1.42.06,5.45,5.45,0,0,0-2.52,0,1.35,1.35,0,0,1-.73,0,2.69,2.69,0,0,0-.85,0,6.38,6.38,0,0,1-1.45-.09c-1.36-.24-1.61-.26-2.16-.1a5.71,5.71,0,0,1-2.12.1c-.51-.06-.67,0-.87.07a.87.87,0,0,1-.92,0,.75.75,0,0,0-.8,0c-.1.09-.22.1-.44.05a.92.92,0,0,0-.46,0,7.89,7.89,0,0,1-1.2.09l-1.41,0a1.78,1.78,0,0,1-.72-.14,1.7,1.7,0,0,0-.92-.1,9.66,9.66,0,0,1-1.42,0,3,3,0,0,0-1.06.17c-.7.25-.89.54-.89,1.35,0,.53,0,.57.31.91l.31.37h1.17l1.92.06a3.79,3.79,0,0,0,1.11-.07,1.78,1.78,0,0,1,1,0,7.48,7.48,0,0,0,1,.12l2.26-.05a10.74,10.74,0,0,1,2.41.08,1.27,1.27,0,0,0,.84,0,3.91,3.91,0,0,1,1.94,0c.3.24.65.26,1.51.07a20.73,20.73,0,0,1,2.15-.39,3.66,3.66,0,0,1,.65.17,3.12,3.12,0,0,0,1.4.13,7.73,7.73,0,0,1,1.45.07,2,2,0,0,0,1,0,31.35,31.35,0,0,1,3.42-.15c2.88,0,3,0,3.26.15s.4.19,1.44.15,1.17-.07,1.34-.2.61-.2,2.64-.1a12.31,12.31,0,0,0,2,0,3,3,0,0,1,.95,0,1.76,1.76,0,0,0,.82,0,2.08,2.08,0,0,1,1,0,4,4,0,0,0,.79.1l2.14-.06a7.07,7.07,0,0,1,2.26.1,1.58,1.58,0,0,0,.73.08,7.6,7.6,0,0,1,.82-.09c.28,0,.75-.06,1.05-.09s.58,0,.74.07a1,1,0,0,0,1,0,25.4,25.4,0,0,1,4.85,0,3.28,3.28,0,0,0,1.41,0,11,11,0,0,1,3.51,0,6.15,6.15,0,0,0,2.78,0,3,3,0,0,1,1.18-.16l4.54,0c2.1,0,4.15.06,4.55.1a9.16,9.16,0,0,0,1.48,0,12.49,12.49,0,0,1,2.14,0c.76,0,1.95.08,2.65.07a17.65,17.65,0,0,1,2.07.08l1.54.21a4.45,4.45,0,0,0,1,0l.82-.19a1.86,1.86,0,0,1,.92-.05c.27.06,17.2.1,20.74.05.25,0,1.23,0,2.18.08a16.35,16.35,0,0,0,2.13,0c.23,0,1.95-.07,3.82-.06h4.49a3.38,3.38,0,0,1,1.52.17,10.25,10.25,0,0,0,3.23.31c.82,0,1.86.07,2.33.13a15.77,15.77,0,0,0,2.48,0c.9,0,2.84-.07,4.31-.07s3.07,0,3.56-.08a2.36,2.36,0,0,1,1.33.09,3.29,3.29,0,0,0,1.41.13,33.51,33.51,0,0,1,6.44.2c.38.18,1,.19,1.12,0a.29.29,0,0,1,.19-.13s.19-.15.31-.33.22-.4.22-1,0-.7-.23-1a1.49,1.49,0,0,0-1-.6,2.43,2.43,0,0,1-.65-.1,2,2,0,0,0-1,0,12.13,12.13,0,0,1-3.21-.1,2.26,2.26,0,0,0-1.11,0,4.08,4.08,0,0,1-2.13.15c-.43-.07-.92-.17-1.09-.22a12,12,0,0,0-1.79-.09c-1.3,0-1.52,0-1.68.15s-.43.16-3,.13a13.31,13.31,0,0,1-3.13-.16,3.77,3.77,0,0,0-1.92-.11,5.76,5.76,0,0,1-2.52-.08,10.86,10.86,0,0,0-2.1-.19c-.61,0-1.8-.05-2.65-.11a13.88,13.88,0,0,0-2.75,0,12.77,12.77,0,0,1-3.27,0c-.46-.07-2.6-.1-6.65-.11-5.15,0-6.05,0-6.49-.14a4.14,4.14,0,0,0-2,.07c-.42.1-5,.19-6.33.14a9.9,9.9,0,0,0-2.65.08c-.12.14-.62.15-1,0s-4.64-.24-9.73-.3c-1.64,0-3.41-.08-3.93-.13a12.86,12.86,0,0,0-3.81.08,4.18,4.18,0,0,1-2.35,0,6.79,6.79,0,0,0-2.76-.09,3.06,3.06,0,0,1-1.44,0,6.15,6.15,0,0,0-1.58-.1c-.5.05-3.53.24-3.83.24l-.38-.09a8.8,8.8,0,0,0-2.75,0,3,3,0,0,1-1.53,0c-1-.15-1-.15-1.5,0s-.45.2-2-.07a2.88,2.88,0,0,0-1.62.14.84.84,0,0,1-.89,0,.83.83,0,0,0-.77-.08,2,2,0,0,1-.68-.05,1.22,1.22,0,0,0-.93.05,1.92,1.92,0,0,1-1.55.07,6.23,6.23,0,0,0-2.59-.08,2.57,2.57,0,0,1-1.1,0c-.38-.11-.45-.1-.62,0-.51.36-.53.37-.81.12a.62.62,0,0,0-.86-.1,1.17,1.17,0,0,1-1.05,0,2.32,2.32,0,0,0-1.73,0,.62.62,0,0,1-.85,0,1.08,1.08,0,0,0-1.11,0,3.35,3.35,0,0,1-1.91,0,7.74,7.74,0,0,0-2.17-.11,8.52,8.52,0,0,0-1.88.14c-.14.09-.21.09-.36,0A1.71,1.71,0,0,0,238.5,532.36Z" transform="translate(-214.5 -54.03)"/><path d="M439.62,532.36a1.84,1.84,0,0,0-1.44.2,1.11,1.11,0,0,1-1.25.06,4.24,4.24,0,0,0-2.22,0,1,1,0,0,1-.64,0,2.09,2.09,0,0,0-.75,0,4.9,4.9,0,0,1-1.27-.09c-1.21-.24-1.42-.26-1.9-.1a4.48,4.48,0,0,1-1.87.1c-.45-.06-.59,0-.77.07a.68.68,0,0,1-.8,0,.6.6,0,0,0-.71,0c-.09.09-.19.1-.39.05a.73.73,0,0,0-.41,0,6.06,6.06,0,0,1-1.05.09l-1.24,0a1.42,1.42,0,0,1-.64-.14,1.31,1.31,0,0,0-.8-.1,7.5,7.5,0,0,1-1.25,0,2.37,2.37,0,0,0-.94.17c-.61.25-.78.54-.78,1.35,0,.53,0,.57.27.91l.28.37h1l1.7.06a2.9,2.9,0,0,0,1-.07,1.4,1.4,0,0,1,.91,0,5.66,5.66,0,0,0,.84.12l2-.05a8.43,8.43,0,0,1,2.13.08,1,1,0,0,0,.73,0,3.06,3.06,0,0,1,1.71,0c.26.24.57.26,1.33.07a16.39,16.39,0,0,1,1.89-.39,2.81,2.81,0,0,1,.58.17,2.41,2.41,0,0,0,1.23.13,5.92,5.92,0,0,1,1.27.07,1.59,1.59,0,0,0,.89,0,24.07,24.07,0,0,1,3-.15c2.54,0,2.61,0,2.87.15s.35.19,1.27.15,1-.07,1.18-.2.54-.2,2.33-.1a9.53,9.53,0,0,0,1.74,0,2.3,2.3,0,0,1,.83,0,1.4,1.4,0,0,0,.73,0,1.6,1.6,0,0,1,.84,0,3.06,3.06,0,0,0,.69.1l1.89-.06a5.52,5.52,0,0,1,2,.1,1.23,1.23,0,0,0,.64.08,5.86,5.86,0,0,1,.72-.09c.24,0,.66-.06.93-.09s.51,0,.65.07a.78.78,0,0,0,.85,0,19.7,19.7,0,0,1,4.27,0,2.54,2.54,0,0,0,1.24,0,8.53,8.53,0,0,1,3.09,0,4.75,4.75,0,0,0,2.44,0,2.44,2.44,0,0,1,1.05-.16l4,0c1.85,0,3.65.06,4,.1a7.18,7.18,0,0,0,1.31,0,9.65,9.65,0,0,1,1.88,0c.67,0,1.72.08,2.34.07a13.47,13.47,0,0,1,1.81.08l1.36.21a3.48,3.48,0,0,0,.91,0l.72-.19a1.42,1.42,0,0,1,.8-.05c.25.06,15.15.1,18.26.05.23,0,1.09,0,1.92.08a12.76,12.76,0,0,0,1.88,0c.2,0,1.72-.07,3.36-.06h4a2.6,2.6,0,0,1,1.33.17,8.05,8.05,0,0,0,2.85.31,20,20,0,0,1,2.05.13,12.2,12.2,0,0,0,2.18,0c.8,0,2.5-.07,3.8-.07s2.7,0,3.13-.08a1.85,1.85,0,0,1,1.17.09,2.56,2.56,0,0,0,1.24.13,26,26,0,0,1,5.67.2c.33.18.87.19,1,0s.12-.13.17-.13.17-.15.28-.33a1.55,1.55,0,0,0,.19-1c0-.64,0-.7-.2-1a1.29,1.29,0,0,0-.9-.6,1.93,1.93,0,0,1-.58-.1,1.49,1.49,0,0,0-.89,0,9.44,9.44,0,0,1-2.83-.1c-.57-.09-.81-.09-1,0a3.2,3.2,0,0,1-1.88.15,8.84,8.84,0,0,1-1-.22,9.43,9.43,0,0,0-1.58-.09c-1.15,0-1.34,0-1.48.15s-.38.16-2.64.13a10.23,10.23,0,0,1-2.75-.16,3,3,0,0,0-1.7-.11,4.49,4.49,0,0,1-2.22-.08,8.38,8.38,0,0,0-1.84-.19c-.54,0-1.59-.05-2.34-.11a10.77,10.77,0,0,0-2.42,0,9.85,9.85,0,0,1-2.87,0c-.41-.07-2.29-.1-5.86-.11-4.52,0-5.32,0-5.71-.14a3.21,3.21,0,0,0-1.8.07c-.37.1-4.44.19-5.58.14a7.58,7.58,0,0,0-2.32.08c-.11.14-.55.15-.87,0s-4.08-.24-8.56-.3c-1.44,0-3-.08-3.46-.13a9.94,9.94,0,0,0-3.35.08,3.29,3.29,0,0,1-2.08,0,5.23,5.23,0,0,0-2.42-.09,2.39,2.39,0,0,1-1.27,0,4.77,4.77,0,0,0-1.39-.1c-.44.05-3.1.24-3.37.24l-.33-.09a6.83,6.83,0,0,0-2.42,0,2.31,2.31,0,0,1-1.35,0c-.86-.15-.88-.15-1.32,0s-.4.2-1.8-.07a2.23,2.23,0,0,0-1.42.14.67.67,0,0,1-.79,0,.66.66,0,0,0-.68-.08,1.54,1.54,0,0,1-.59-.05c-.46-.09-.55-.09-.82.05a1.52,1.52,0,0,1-1.37.07,4.83,4.83,0,0,0-2.28-.08,2,2,0,0,1-1,0c-.33-.11-.4-.1-.55,0-.45.36-.46.37-.71.12a.51.51,0,0,0-.76-.1.93.93,0,0,1-.93,0,1.81,1.81,0,0,0-1.52,0,.49.49,0,0,1-.74,0,.86.86,0,0,0-1,0,2.61,2.61,0,0,1-1.68,0,6,6,0,0,0-1.91-.11,6.67,6.67,0,0,0-1.66.14c-.12.09-.18.09-.31,0A1.51,1.51,0,0,0,439.62,532.36Z" transform="translate(-214.5 -54.03)"/><line class="cls-1" x1="40" y1="104.47" x2="59" y2="85.47"/><path d="M271.89,144.14c.17,0,.2-.11.07-.36s-.1-.31.14-.23a.26.26,0,0,0,.37-.29c0-.1,0-.14.07-.12s.1,0,.13-.09.11-.12.25-.12c.35,0,.39,0,.35-.21a.26.26,0,0,1,.21-.35c.1,0,.11-.06.06-.17s-.05-.21.11-.13.2,0,.11-.09,0-.1,0-.09.08,0,.07,0a.43.43,0,0,1,.09-.22l.15-.21s.11,0,.2,0,.16,0,.19,0a.32.32,0,0,1,.16-.21c.05,0,.06-.13,0-.27s-.26-.49-.83-1.06a4.53,4.53,0,0,0-.69-.61l-.3-.22-.16.14a2.22,2.22,0,0,1-.29.22.16.16,0,0,0-.1.19c0,.1,0,.12-.14.12a.39.39,0,0,0-.21,0s-.14.16-.26.32-.27.28-.37.26-.13,0-.11.12-.11.34-.25.25-.26-.1-.24.15a1.53,1.53,0,0,1,0,.55.51.51,0,0,1-.21,0c-.15-.05-.2,0-.27.09a.27.27,0,0,1-.24.13c-.11,0-.14,0-.13.14s-.12.28-.34.54-.37.41-.53.32-.19-.08-.29.08-.11.21,0,.32.06.22-.27.41a.48.48,0,0,0-.25.27.12.12,0,0,1-.13.12q-.11,0-.09.12c0,.09,0,.12-.13.12a.23.23,0,0,0-.17,0,3,3,0,0,1-.24.32c-.18.23-.24.27-.36.23s-.15,0-.15,0a.33.33,0,0,1-.05.16.65.65,0,0,0-.07.21c0,.1,0,.11-.15,0s-.21-.05-.15.11-.45.65-.64.62-.13,0-.16.2-.23.48-.46.45-.44.14-.36.37,0,.2,0,.26-.34.3-.62.57a3.85,3.85,0,0,1-.66.52.32.32,0,0,0-.19.2c0,.11-.12.2-.28.27a1.5,1.5,0,0,0-.39.3.6.6,0,0,1-.33.21l-.35.05c-.09,0-.17.06-.16.11s0,.15,0,.24,0,.16-.08.15-2.31,2.17-2.74,2.67a2.52,2.52,0,0,1-.34.22c-.15.09-.28.21-.28.27a2.07,2.07,0,0,1-.46.54l-.58.58a.22.22,0,0,1-.32.08c-.2-.07-.33,0-.63.21a1.29,1.29,0,0,1-.4.21c-.13,0-.23.11-.35.3a4.68,4.68,0,0,1-.51.61,1.93,1.93,0,0,0-.4.52c-.06.15-.08.16-.24.11a.19.19,0,0,0-.28.09c-.31.45-.78.78-1,.69s-.26,0-.15.14.08.11.07.12a1.55,1.55,0,0,0,.19.28,8.27,8.27,0,0,0,.69.74,4.86,4.86,0,0,0,.71.65c.29.21.54.35.55.29s.08,0,.16,0,.14,0,.13-.13.17-.28.49-.34c.15,0,.18-.07.15-.14-.09-.24,0-.38.17-.39a1.28,1.28,0,0,1,.3,0,.53.53,0,0,0,.29-.17c.18-.17.19-.21.12-.33s-.06-.16.29-.48.41-.34.52-.3.36,0,.34-.16.08-.28.38-.28a.5.5,0,0,0,.41-.14,1.79,1.79,0,0,1,.42-.26c.23-.11.29-.17.35-.37s.2-.42.4-.45.42-.26,1-.79.8-.76.94-.74.24-.06.22-.32a2.54,2.54,0,0,1,.73-.91c.22-.14.34-.32.28-.41s0-.18.12-.14a5.3,5.3,0,0,0,1.47-1.05,2.46,2.46,0,0,1,.61-.42c.31-.1.48-.32.43-.56s.05-.36.31-.3.45-.09.42-.3,0-.14.22-.16.25-.05.27-.13.3-.63.33-.67.06,0,.12,0,.36-.19.33-.38,0-.17.21-.19.23,0,.17-.22-.08-.2.31-.22c.16,0,.2-.14.11-.31s0-.2.13-.1.22.05.16-.05,0,0,.12,0,.14,0,.08-.16,0-.34.16-.25.34,0,.39-.28.07-.14.17-.11.13,0,.06-.11c-.19-.32-.19-.33,0-.19s.27.15.19,0-.05-.19.14-.13.32-.06.19-.26-.09-.23.11-.11.24.08.16-.12,0-.3.26-.24.2,0,.36-.21.18-.28.14-.34,0-.09.07,0Z" transform="translate(-214.5 -54.03)"/><line class="cls-1" x1="59" y1="85.47" x2="75" y2="101.47"/><path d="M285.36,154.38c-.05.16.08.18.32,0s.29-.12.2.11,0,.36.24.32.13,0,.1.05a.1.1,0,0,0,.08.11c.07,0,.1.1.09.23,0,.32,0,.35.16.3s.28,0,.31.17,0,.1.15,0,.2-.06.11.09-.05.18.08.1.09-.05.07,0,0,.08,0,.07a.25.25,0,0,1,.2.06l.18.13s0,.09,0,.17-.05.16,0,.18.12,0,.18.13.12,0,.24,0a3.41,3.41,0,0,0,1.05-.85,6.25,6.25,0,0,0,.62-.68l.22-.29-.12-.14a2.23,2.23,0,0,1-.17-.25.13.13,0,0,0-.17-.08c-.09,0-.11,0-.1-.12s0-.18,0-.19-.14-.11-.28-.22-.23-.22-.21-.32,0-.12-.09-.08-.31-.08-.22-.21.11-.26-.12-.22a1.51,1.51,0,0,1-.51,0,.84.84,0,0,1,.06-.19c.05-.15,0-.19-.07-.25a.2.2,0,0,1-.1-.21c0-.1,0-.13-.11-.11s-.26-.08-.48-.27-.34-.31-.25-.47.09-.17-.05-.26a.23.23,0,0,0-.29,0c-.16.1-.21.07-.36-.22-.06-.13-.15-.21-.23-.21a.09.09,0,0,1-.1-.11c0-.06,0-.09-.1-.07s-.12,0-.1-.12,0-.14,0-.15l-.28-.19c-.19-.15-.22-.2-.18-.32s0-.14,0-.13a.42.42,0,0,1-.15,0,.48.48,0,0,0-.18,0c-.09,0-.1,0,0-.14s.06-.2-.08-.12-.57-.37-.53-.55,0-.12-.17-.13-.42-.17-.38-.39-.09-.39-.31-.3-.19,0-.24,0l-.47-.52a2.76,2.76,0,0,1-.43-.57.22.22,0,0,0-.17-.16c-.1,0-.17-.09-.23-.24a.91.91,0,0,0-.24-.33.49.49,0,0,1-.17-.29c0-.09,0-.23,0-.32s0-.15-.08-.14l-.23,0c-.1,0-.14,0-.13-.06a29.94,29.94,0,0,0-2.24-2.31,1.52,1.52,0,0,1-.18-.29c-.07-.14-.17-.25-.23-.25a1.36,1.36,0,0,1-.46-.37l-.49-.5c-.1-.09-.11-.14-.05-.28s.06-.31-.13-.57a.84.84,0,0,1-.16-.35.43.43,0,0,0-.25-.29,2.63,2.63,0,0,1-.53-.43,1.52,1.52,0,0,0-.44-.33c-.14,0-.15-.06-.09-.21s.05-.18-.06-.25c-.39-.25-.66-.66-.56-.84s0-.25-.12-.13l-.11.07a1.17,1.17,0,0,0-.27.2,8.27,8.27,0,0,0-.74.69,5.66,5.66,0,0,0-.65.7c-.22.29-.37.53-.32.54s0,.06,0,.14,0,.13.11.11.25.13.28.43c0,.13,0,.16.11.12.23-.1.35-.06.34.13a1.57,1.57,0,0,1,0,.27c0,.06,0,.17.13.26s.18.16.29.08.16-.06.42.24.28.35.23.45,0,.33.13.3.25,0,.22.33a.4.4,0,0,0,.1.36,1.16,1.16,0,0,1,.21.37c.08.2.14.25.31.29s.38.15.38.34.21.36.65.8.65.68.61.82,0,.21.28.17a2,2,0,0,1,.79.6c.1.19.26.29.35.23s.17,0,.12.1a3.85,3.85,0,0,0,.85,1.27,1.77,1.77,0,0,1,.34.53c.07.28.25.42.48.35s.32,0,.25.27.05.4.24.36.14,0,.13.19,0,.22.11.24a4.76,4.76,0,0,1,.59.25.65.65,0,0,1,0,.1c-.05.15.16.32.33.27s.16,0,.16.18,0,.22.19.14.19-.08.17.28c0,.14.11.17.28.07s.19,0,.09.11-.07.21,0,.14,0,0,0,.11,0,.13.13.07.32-.06.22.12,0,.31.23.34.12.05.09.15,0,.12.09.05c.32-.21.32-.21.17,0s-.15.26,0,.17.18-.06.11.12,0,.28.22.15.22-.1.1.09-.09.23.1.14.26,0,.2.22,0,.18.16.32.24.14.3.1.09,0,0,.07A.75.75,0,0,0,285.36,154.38Z" transform="translate(-214.5 -54.03)"/><line class="cls-1" x1="583" y1="461.47" x2="592" y2="480.47"/><path d="M803.09,532.29c-.1.13,0,.18.28.13s.31,0,.14.16-.1.33.11.35.12,0,.08.08a.08.08,0,0,0,0,.12s0,.12,0,.23c-.13.28-.13.32,0,.32s.26.08.23.24,0,.1.12.08.2,0,.07.11-.12.15,0,.11.11,0,.07,0,0,.07,0,.07.11,0,.16.11l.13.17s0,.09-.08.15-.1.13,0,.17.1.07.13.16.08.08.22.07a3.63,3.63,0,0,0,1.27-.46,6.82,6.82,0,0,0,.81-.43l.31-.2-.06-.16a1.8,1.8,0,0,1-.07-.27c0-.08-.05-.12-.13-.12s-.11,0,0-.14a.34.34,0,0,0,.05-.18l-.18-.27c-.12-.18-.14-.27-.08-.35s0-.1-.06-.1-.26-.16-.12-.25.19-.2,0-.23a1.68,1.68,0,0,1-.49-.11.47.47,0,0,1,.12-.16c.1-.12.11-.16,0-.24a.22.22,0,0,1,0-.22c0-.09,0-.12-.06-.13s-.2-.15-.33-.38-.21-.38-.07-.49.14-.13,0-.25-.13-.12-.26-.09-.22,0-.25-.3a.32.32,0,0,0-.13-.26c-.07,0-.09-.07-.06-.12s0-.09-.07-.1-.1,0,0-.13a.19.19,0,0,0,0-.14l-.19-.25c-.12-.19-.13-.25-.05-.34s.08-.12,0-.13a.33.33,0,0,1-.13-.07l-.15-.1c-.08,0-.08,0,0-.12s.13-.16,0-.14-.39-.5-.29-.64,0-.11-.11-.17-.32-.28-.21-.46.05-.38-.17-.36-.2,0-.22-.09l-.24-.61a2.15,2.15,0,0,1-.2-.63.18.18,0,0,0-.1-.19c-.08,0-.12-.13-.12-.28a.73.73,0,0,0-.11-.37.43.43,0,0,1,0-.31l.1-.29c0-.08,0-.14,0-.15l-.22,0c-.11,0-.14,0-.1-.09a24.26,24.26,0,0,0-1.23-2.72A1.59,1.59,0,0,1,801,520c0-.15-.06-.27-.12-.28a1.42,1.42,0,0,1-.29-.48c-.11-.24-.23-.51-.27-.58s-.06-.16,0-.27.17-.26.08-.55a.9.9,0,0,1,0-.36.36.36,0,0,0-.12-.34,2.31,2.31,0,0,1-.34-.53,1.42,1.42,0,0,0-.29-.43c-.11-.07-.11-.09,0-.21s.11-.15,0-.24c-.27-.34-.38-.78-.22-.92s.11-.21-.06-.15l-.13,0a1.67,1.67,0,0,0-.32.1,8.88,8.88,0,0,0-.93.4c-.57.28-.63.31-.85.44s-.52.37-.48.39,0,.07,0,.13-.06.11,0,.13.19.19.11.47c0,.12,0,.15.06.14.25,0,.34.05.27.22a2.09,2.09,0,0,1-.13.23s0,.17,0,.27.11.19.24.16.16,0,.3.33.13.4.05.48-.14.29,0,.3.21.12.09.36a.39.39,0,0,0,0,.35,1.09,1.09,0,0,1,.07.39c0,.21,0,.27.18.36s.29.24.23.41.06.38.31.91.35.8.27.91,0,.2.19.23a1.71,1.71,0,0,1,.51.77c0,.2.14.34.25.31s.16,0,.07.12a3.35,3.35,0,0,0,.33,1.39,1.59,1.59,0,0,1,.12.57c0,.27.09.45.31.46s.3.11.14.31-.1.37.1.39.12.05,0,.21-.06.21,0,.25a3.61,3.61,0,0,1,.45.39.21.21,0,0,1-.06.09c-.1.12,0,.33.21.34s.15,0,.08.21-.07.19.12.18.21,0,.07.29c-.06.13,0,.19.22.15s.19,0,0,.13-.13.16,0,.13,0,0,0,.11,0,.12.1.1.31,0,.16.17-.11.28.08.37.1.08,0,.16-.07.1.06.07c.36-.09.37-.09.16,0s-.23.19,0,.16.19,0,.06.14-.07.27.15.2.24,0,.06.11-.17.18,0,.16.24.09.11.25-.08.16,0,.33.17.2.24.19.09,0,0,.06A.65.65,0,0,0,803.09,532.29Z" transform="translate(-214.5 -54.03)"/><line class="cls-1" x1="592" y1="480.47" x2="582" y2="495.47"/><path d="M796.36,545.85c-.15,0-.13.08.06.28s.19.24,0,.18-.32.05-.21.23,0,.11,0,.09-.09,0-.08.07-.06.1-.18.1c-.29,0-.32,0-.23.17s.07.23-.06.27-.08,0,0,.13.11.17-.05.11-.18,0-.07.07.07.08,0,.07-.07,0-.05,0,0,.1,0,.17a.7.7,0,0,0-.06.17s-.09,0-.17,0-.15,0-.15,0,0,.11-.07.17,0,.1.08.21a4.21,4.21,0,0,0,1.06.83,5.36,5.36,0,0,0,.78.48l.32.17.09-.11a1.36,1.36,0,0,1,.18-.17c.06,0,.06-.09,0-.15s0-.1.09-.1.16,0,.16,0,.06-.13.12-.25.13-.23.23-.21.11,0,0-.09,0-.27.13-.2.26.08.16-.12a1.37,1.37,0,0,1-.17-.43.44.44,0,0,1,.19,0c.14,0,.18,0,.2-.08a.17.17,0,0,1,.16-.11c.1,0,.11,0,.07-.1s0-.22.11-.43.18-.32.35-.25.18.06.22-.07,0-.16-.07-.25-.13-.17.1-.32.14-.15.12-.21a.07.07,0,0,1,.07-.1c.06,0,.07,0,0-.09s0-.1.07-.1.13,0,.14,0a1.58,1.58,0,0,1,.09-.26c.08-.17.12-.2.24-.17s.13,0,.12,0a.27.27,0,0,1,0-.13.47.47,0,0,0,0-.16c0-.08,0-.08.12,0s.19,0,.09-.09.17-.51.34-.48.11,0,.08-.17,0-.37.24-.35.33-.11.19-.29-.1-.16,0-.21l.34-.44a1.82,1.82,0,0,1,.39-.42.14.14,0,0,0,.1-.16q0-.12.15-.21a.69.69,0,0,0,.24-.24.29.29,0,0,1,.21-.16l.28,0c.07,0,.12,0,.1-.09a1.88,1.88,0,0,0-.1-.19c-.05-.09,0-.12,0-.12a17.6,17.6,0,0,0,1.47-2.1.85.85,0,0,1,.21-.18c.11-.07.18-.17.16-.21s.08-.24.21-.43.27-.39.31-.46.09-.11.24-.06.3,0,.48-.16a.61.61,0,0,1,.27-.17c.1,0,.16-.09.19-.24A2.14,2.14,0,0,1,807,537a1.1,1.1,0,0,0,.18-.41c0-.12,0-.13.16-.09s.18,0,.21-.07c.12-.35.41-.62.61-.55s.22,0,.08-.11a.49.49,0,0,1-.1-.09,1.85,1.85,0,0,0-.25-.22c-.23-.18-.32-.24-.83-.58a7,7,0,0,0-.81-.51c-.32-.17-.58-.27-.57-.23s0,0-.12,0-.12,0-.07.1-.05.22-.31.27-.13.05-.08.11.15.3,0,.31h-.26s-.14.05-.2.13-.09.17,0,.26.1.13-.09.38-.24.26-.35.23-.3,0-.23.13,0,.22-.24.22-.25,0-.3.11a.77.77,0,0,1-.27.21c-.16.08-.19.14-.18.29s0,.33-.2.35-.26.21-.54.63-.44.6-.57.58-.18,0-.08.25a1.24,1.24,0,0,1-.32.73c-.14.1-.19.25-.11.32s.08.14,0,.11-.52.34-.92.83a1.13,1.13,0,0,1-.38.33c-.23.08-.31.25-.19.44s.08.28-.16.24-.35.07-.26.24,0,.11-.14.12-.19,0-.19.11a2.57,2.57,0,0,1-.06.52h-.1c-.15,0-.24.16-.15.31s.05.13-.12.15-.19,0-.08.17.14.15-.19.17c-.13,0-.13.11,0,.25s.09.15-.07.08-.2,0-.12,0,0,0-.08,0-.12,0,0,.12.14.27-.05.2-.28,0-.24.22,0,.11-.11.09-.12,0,0,.08c.27.26.27.26.05.15s-.28-.11-.15,0,.1.15-.07.11-.25.05-.08.2.15.18-.06.09-.23-.06-.1.1.06.23-.14.19-.16,0-.24.16-.06.22,0,.27.06.07,0,0Z" transform="translate(-214.5 -54.03)"/><rect class="cls-1" x="146" y="360.75" width="58" height="119.72"/><path d="M362.64,415.21l0-.43L360.5,417a12.13,12.13,0,0,0,3.47-.24,7.37,7.37,0,0,1,3.39-.07,29.62,29.62,0,0,0,6,0,7.35,7.35,0,0,1,1.72,0,15.81,15.81,0,0,0,2,0c1,0,2.12,0,3.42.07a24.13,24.13,0,0,0,5.08,0,34.56,34.56,0,0,1,5.07-.15,8.28,8.28,0,0,0,2.1-.1,5.16,5.16,0,0,1,2.17,0,4.31,4.31,0,0,0,1.89,0,3,3,0,0,1,1.08-.05,6.68,6.68,0,0,0,1.1,0c.23,0,1.53-.09,2.89-.12l3.39-.08a10.53,10.53,0,0,1,1.64.08,9.55,9.55,0,0,0,2.12.05c1.69-.07,1.8-.07,3.41-.09a25.36,25.36,0,0,0,2.67-.17c1.83-.2,2.49-.41,3.07-1,.38-.38.38-.4-.11-.65l-.51-.27-2.84,0-4.7-.08c-1.16,0-2.19,0-2.76,0a12.62,12.62,0,0,1-2.52,0c-.89-.06-1.91-.12-2.28-.12h-5.57c-3.64,0-5.16,0-5.91-.1a8,8,0,0,0-2.07,0,25.52,25.52,0,0,1-4.79,0c-.66-.24-1.53-.26-3.72-.08-2.84.22-4.91.37-5.37.36-.21,0-.91-.08-1.58-.17a18.58,18.58,0,0,0-3.42-.14c-1.31,0-2.77,0-3.56-.07a11.39,11.39,0,0,0-2.48,0c-.3,0-1,.05-3.48.07h-1.59l.63.95a3.57,3.57,0,0,1,0,.4l0,1.05c0,.88,0,2.09,0,3.43,0,7,0,7.21-.15,7.94s-.19,1-.15,3.51a14,14,0,0,0,.2,3.26c.18.6.2,1.49.1,6.43-.05,2,0,4,0,4.82a17.67,17.67,0,0,1,0,2.31,10.44,10.44,0,0,0,0,2,12,12,0,0,1,0,2.32c-.06.7-.11,1.57-.1,1.92s0,2.7.06,5.21a41.52,41.52,0,0,1-.1,5.51,9.07,9.07,0,0,0-.08,1.77c0,.44.07,1.35.09,2s.06,1.81.09,2.55a4.79,4.79,0,0,1-.07,1.8,5.58,5.58,0,0,0,0,2.36c.15.86.14,10.44,0,11.8a19.3,19.3,0,0,0,0,3.44,64.82,64.82,0,0,1,0,8.55,35.94,35.94,0,0,0,0,6.76,17.49,17.49,0,0,1,.16,2.88c0,1,0,5.95,0,11.06s-.06,10.08-.1,11.06,0,2.5,0,3.56l.05,1,.92,0h.06c1.23-.06,3-.06,5.2,0,1.84,0,4.75.08,6.46.07s4,0,5,.08l3.76.21c1,.06,2.15.08,2.51,0l2-.19a10.76,10.76,0,0,1,2.23-.05c.2,0,4.17,0,9.95.05l20.82,0h1.21V534.5c0-8.08,0-16.49,0-19.88,0-.62,0-3,.07-5.35s.05-4.68,0-5.25-.08-4.77-.08-9.36,0-9.54,0-11a22.68,22.68,0,0,1,.14-3.78,64.62,64.62,0,0,0,.26-8.06c0-2,0-4.62.09-5.79.06-1.45.05-3.36,0-6.12,0-2.21-.08-7-.13-10.57s-.07-7.53-.12-8.7a18.79,18.79,0,0,1,.05-3.34,24.51,24.51,0,0,0,.09-3.53c-.13-7.19-.12-14.8,0-16a9.34,9.34,0,0,0,0-2.75.85.85,0,0,1-.1-.38,1.14,1.14,0,0,0-.24-.54c-.22-.27-.29-.25-.72.18a2,2,0,0,0-.68,1.23,13.2,13.2,0,0,0-.43,2.89c0,.27,0,1-.08,1.66a15.61,15.61,0,0,0,0,2.47c.08,1.39.05,4.13-.11,7.85a17.47,17.47,0,0,0,0,2.68,27.63,27.63,0,0,1,.1,5.07c-.06,1.09-.15,2.33-.19,2.76s-.08,2.42-.09,4.4c0,3.14,0,3.65.11,4s.12.94.08,7.17c0,5.49-.06,7-.16,7.65a25.63,25.63,0,0,0-.13,4.71,35.77,35.77,0,0,1-.09,6.12c-.13,1.71-.19,3.28-.2,5.13,0,1.47-.06,4.36-.12,6.42-.09,3.06-.1,4.28,0,6.62a75.27,75.27,0,0,1,0,7.86c-.07,1.14-.12,6.28-.14,16,0,12.38,0,14.56-.15,15.63a14.41,14.41,0,0,0-.09,1.84l1.93-1.93a30.79,30.79,0,0,0-3.12.16c-1,.1-12.27.19-15.42.14a57.83,57.83,0,0,0-6.44.08,6.76,6.76,0,0,1-2.39,0c-.69-.1-11.3-.24-23.7-.3-2.88,0-5.94,0-6.93-.09l1.92,1.92c0-1.7,0-2.28,0-2.64a75.31,75.31,0,0,0-.08-9.25,24.58,24.58,0,0,1,0-5.75,39.46,39.46,0,0,0,.09-6.69,18,18,0,0,1,0-3.51,36.44,36.44,0,0,0,.1-3.86c0-1.21-.22-8.58-.24-9.31,0-.1,0-.52.09-.93a51.81,51.81,0,0,0,0-6.69,17.32,17.32,0,0,1,0-3.73,12.4,12.4,0,0,0,0-3.65c-.19-1.3-.2-1.1.07-5a16.58,16.58,0,0,0-.14-3.94,4.62,4.62,0,0,1,0-2.16,4.68,4.68,0,0,0,.08-1.89,11.69,11.69,0,0,1,.05-1.64,6.9,6.9,0,0,0-.05-2.26,11,11,0,0,1-.07-3.78,36.58,36.58,0,0,0,.08-6.32,15,15,0,0,1,0-2.67,3,3,0,0,0,0-1.52c-.36-1.23-.37-1.27-.12-1.95a3.22,3.22,0,0,0,.1-2.1,6.7,6.7,0,0,1,0-2.57,13.3,13.3,0,0,0-.05-4.21,3.22,3.22,0,0,1,0-2.06,6,6,0,0,0,0-2.69,19.59,19.59,0,0,1,0-4.66,45.41,45.41,0,0,0,.11-5.28c0-2.81-.07-4.29-.14-4.58a1.25,1.25,0,0,1,0-.87A8.44,8.44,0,0,0,362.64,415.21Z" transform="translate(-214.5 -54.03)"/><rect class="cls-1" x="332.5" y="65.62" width="56.5" height="414.85"/><path d="M549.14,218.11a92.61,92.61,0,0,0-.2-10.57,54.59,54.59,0,0,1-.06-9.2c.21-3.75.23-11.45,0-16.27-.08-2.15-.09-3.62,0-4.68.05-.86.06-3.32,0-5.49,0-2.62,0-5.77.09-9.37.24-8.82.26-10.39.1-13.94-.16-3.85-.19-8.1-.1-13.72a50.58,50.58,0,0,0-.07-5.62,33.27,33.27,0,0,1,0-5.9,28.64,28.64,0,0,0,.11-3.7l-2,2c.63,0,1.08-.05,1.43-.09a16.34,16.34,0,0,1,2.79,0c1,0,2.36,0,2.92,0s4-.08,7.53-.12l8.9-.1c1.33,0,3.35,0,4.5.08,1.59.09,2.94.1,5.72,0,4.4-.12,4.68-.12,8.94-.17,2.28,0,4.52-.12,6.87-.25,4.56-.26,6-.47,6.57-1,.39-.38.34-.4-1.36-.66L600,119l-7.56-.06-12.54-.13c-3.12,0-5.82,0-7.26,0-1.86.08-3.08.07-6.72,0-2.45-.08-5.25-.14-6.21-.14l-12.73,0h-.92v2.89c0,9.53,0,13.53-.08,15.59a51.31,51.31,0,0,0,0,5.41c.16,3.48.16,11.24,0,12.53a64.52,64.52,0,0,0-.07,9.79c.24,7.26.39,12.64.39,13.86,0,.54-.08,2.44-.17,4.22-.14,2.64-.17,4.29-.13,9,0,3.41,0,7.25-.07,9.33-.09,2.77-.09,4.18,0,6.5.07,1.87.12,9.93.15,22,0,18.64,0,19.13-.15,21.08s-.19,2.57-.15,9.3c0,5.9.07,7.56.2,8.65.18,1.58.2,3.95.1,17.06-.05,5.36,0,10.62,0,12.76s0,4.61,0,6.15,0,3.44,0,5.31c.07,2.12.07,3.62,0,6.17-.06,1.85-.11,4.15-.1,5.09s0,7.16.06,13.81c0,10,0,12.5-.1,14.62-.09,1.66-.11,3.29-.08,4.68,0,1.18.06,3.58.09,5.34s.07,4.8.09,6.76a33.56,33.56,0,0,1-.07,4.79,38.85,38.85,0,0,0,0,6.26c.15,2.26.14,27.68,0,31.28-.09,2.06-.08,3.68,0,9.12.18,8.66.18,17.46,0,22.69-.21,5.94-.2,14.19,0,17.92.12,2.16.17,4.22.16,7.64,0,2.58,0,15.77,0,29.33s-.09,26.75-.1,29.33,0,6.63,0,9.45l0,1h1.11c3.26-.06,7.93-.06,13.8,0,4.88,0,12.58.08,17.12.07s10.53,0,13.31.08l10,.21,2.13,0,1.36,0,0-1.4c0-2.3,0-3.89,0-4.54,0-1-.12-3.33-.19-5.29-.1-2.56-.11-4.23-.05-5.92V384.49c0-1.63,0-8,.07-14.08s0-12.33,0-13.84-.07-12.61-.08-24.7,0-25.15,0-29c0-5.85,0-7.52.13-9.9.18-3.3.23-7.62.25-21.07,0-5.32.07-12.13.09-15.14,0-3.78,0-8.78,0-16.08,0-5.84-.07-18.39-.11-27.89s-.09-19.83-.11-23c-.06-5-.06-6,0-8.7.11-2.47.12-4.15.09-9.18-.12-19-.09-39,0-41.83a69.34,69.34,0,0,0,0-7.24,6.81,6.81,0,0,1-.1-1.14,12.23,12.23,0,0,0-.24-1.81c-.22-1.07-.29-1.13-.72-.7s-.49.59-.68,2.15a68.3,68.3,0,0,0-.43,7c0,.71,0,2.65-.07,4.3-.07,2.45-.08,3.66,0,6.55.08,3.85.05,11.09-.11,20.79-.06,4.27-.07,6,0,7.14.17,3.45.21,8.35.1,13.65-.07,2.83-.15,6-.18,7.14s-.08,6.35-.09,11.64c0,8.37,0,9.75.11,10.73s.12,2.64.09,19.22c0,14.59-.07,18.51-.16,20.26-.17,3.22-.23,9.1-.12,12.48.14,4,.12,8.72-.09,16.27-.12,4.5-.17,8.67-.18,13.61,0,3.93-.08,11.63-.12,17.11-.09,8.14-.1,11.41,0,17.69.12,9.75.13,15.38,0,21-.07,3-.12,16.78-.15,42.89,0,33.09-.05,38.9-.17,41.78-.15,3.51-.13,7.37.07,13.15.09,2.71.17,32.42.11,40.76-.06,8.74,0,16.43.08,17a46.82,46.82,0,0,1,0,6.32c0,.72-.09,5.5-.13,24.67l1.66-1.66-.81,0-2.33,0-8.43,0-26.54-.07L547,532.58l1.92,1.92c0-4.51,0-6.06,0-7,.15-10.3.12-19.83-.08-24.55-.23-5.23-.22-10,0-15.23.22-4.92.25-13.09.09-17.77-.1-2.63-.09-4,0-9.31.11-4.34.14-7.43.1-10.22,0-3.22-.22-22.76-.24-24.7,0-.27,0-1.38.09-2.46.14-3,.11-13.76,0-17.75-.13-3.14-.12-4,0-9.88a86.62,86.62,0,0,0,0-9.68c-.19-3.45-.2-2.93.07-13.21.1-4.1,0-8.42-.14-10.45a32.22,32.22,0,0,1,0-5.74,32.54,32.54,0,0,0,.08-5c0-.31,0-2.27.05-4.35a48.27,48.27,0,0,0-.05-6,76.93,76.93,0,0,1-.07-10c.18-2.3.22-9.24.08-16.75-.06-3.23,0-5.05,0-7.08a20.63,20.63,0,0,0,0-4c-.36-3.25-.37-3.36-.12-5.19a21.77,21.77,0,0,0,.1-5.54,46.93,46.93,0,0,1,0-6.83,92.91,92.91,0,0,0,0-11.16,22.12,22.12,0,0,1,0-5.46,41.47,41.47,0,0,0,0-7.14c-.18-2.94-.18-8.29,0-12.36.11-2.41.13-5.14.11-14,0-7.45-.07-11.37-.14-12.14a8.61,8.61,0,0,1,0-2.32C549,220.5,549.09,219.13,549.14,218.11Z" transform="translate(-214.5 -54.03)"/><text class="cls-2" transform="translate(139.39 499.02)">ON<tspan class="cls-3" x="17.22" y="0">E</tspan><tspan class="cls-4" x="25.56" y="0">-</tspan><tspan x="31.41" y="0">TIME </tspan><tspan class="cls-5" x="4.88" y="14.4">C</tspan><tspan x="14.37" y="14.4">OST OF </tspan><tspan x="-5.99" y="28.8">35 MILLION </tspan><tspan x="-16.03" y="43.2">TESTS PER </tspan><tspan class="cls-6" x="61.84" y="43.2">D</tspan><tspan class="cls-7" x="69.77" y="43.2">A</tspan><tspan x="78.34" y="43.2">Y</tspan></text><text class="cls-2" transform="translate(331.37 498.02)">MONTH<tspan class="cls-8" x="43.92" y="0">L</tspan><tspan x="49.88" y="0">Y </tspan><tspan class="cls-7" x="-5.34" y="14.4">E</tspan><tspan class="cls-9" x="3.22" y="14.4">C</tspan><tspan x="12.72" y="14.4">ONOMIC </tspan><tspan class="cls-9" x="1.65" y="28.8">C</tspan><tspan x="11.14" y="28.8">OST OF </tspan><tspan x="-24.32" y="43.2">DOING N</tspan><tspan class="cls-10" x="36.25" y="43.2">O</tspan><tspan x="44.96" y="43.2">THING</tspan></text><text class="cls-2" transform="translate(94.94 306.22)">$1<tspan class="cls-11" x="15.27" y="0">0</tspan><tspan x="23.72" y="0">0 BILLION </tspan><tspan class="cls-12" x="98.64" y="0">(</tspan><tspan x="103.3" y="0">ONE</tspan><tspan class="cls-13" x="129.4" y="0"> </tspan><tspan x="134.36" y="0">TIME)</tspan></text><text class="cls-2" transform="translate(284.16 19.1)"><tspan class="cls-14">$</tspan><tspan x="7.6" y="0">350 BILLION (MONTH</tspan><tspan class="cls-8" x="147.6" y="0">L</tspan><tspan class="cls-15" x="153.57" y="0">Y</tspan><tspan x="164.3" y="0">)</tspan></text><text class="cls-2" transform="translate(455.14 10.28)">*</text><text class="cls-2" transform="translate(269.14 298.28)">*</text><text class="cls-2" transform="translate(229.14 536.28)">*</text><text class="cls-2" transform="translate(420.14 534.28)">*</text><text class="cls-2" transform="translate(389.67 567.35)"><tspan class="cls-16">*</tspan><tspan x="6.83" y="0">As </tspan><tspan class="cls-17" x="27.73" y="0">e</tspan><tspan class="cls-18" x="35.44" y="0">s</tspan><tspan class="cls-19" x="41.87" y="0">t</tspan><tspan x="47.42" y="0">im</tspan><tspan class="cls-20" x="64.29" y="0">a</tspan><tspan class="cls-21" x="71.75" y="0">t</tspan><tspan class="cls-22" x="77.1" y="0">e</tspan><tspan x="84.91" y="0">d </tspan><tspan class="cls-23" x="100.25" y="0">b</tspan><tspan x="106.86" y="0">y </tspan><tspan class="cls-24" x="120.13" y="0">P</tspan><tspan class="cls-25" x="127.86" y="0">a</tspan><tspan class="cls-26" x="136.13" y="0">u</tspan><tspan class="cls-25" x="144.7" y="0">l R</tspan><tspan class="cls-27" x="165.64" y="0">o</tspan><tspan class="cls-28" x="174.63" y="0">m</tspan><tspan class="cls-29" x="187.06" y="0">e</tspan><tspan x="194.38" y="0">r</tspan></text><path d="M402.41,383.64c.12.14.27.06.38-.2s.18-.29.33-.06a.37.37,0,0,0,.59.05c.08-.08.13-.1.17,0s.12.06.2,0a.4.4,0,0,1,.34.09c.31.24.37.26.5.1a.37.37,0,0,1,.49-.1c.12.06.16,0,.21-.07s.15-.19.21,0,.14.17.19,0,.05-.1.1-.05.09.05.11,0a.48.48,0,0,1,.27-.09l.33,0c.05,0,.13.05.17.14s.11.14.21.1a.56.56,0,0,1,.33,0c.09,0,.17-.05.25-.17s.21-.54.21-1.35a3.23,3.23,0,0,0-.07-.91l-.08-.37h-.27l-.44-.06a.25.25,0,0,0-.26.07c-.07.09-.11.09-.24,0a.6.6,0,0,0-.22-.12l-.53,0c-.34,0-.49,0-.56-.08s-.12-.09-.2,0-.4.16-.45,0-.15-.26-.35-.07a2.14,2.14,0,0,1-.5.39s-.09-.08-.15-.17a.25.25,0,0,0-.33-.13.48.48,0,0,1-.34-.07c-.1-.09-.15-.09-.23,0a1.84,1.84,0,0,1-.79.15c-.68,0-.69,0-.76-.15s-.1-.19-.34-.15-.27.07-.31.2-.14.2-.62.1a.69.69,0,0,0-.46,0,.18.18,0,0,1-.22,0c-.06-.06-.12-.05-.19,0s-.13.07-.22,0-.15-.11-.19-.1l-.5.06c-.36,0-.45,0-.52-.1s-.12-.11-.17-.08a.56.56,0,0,1-.19.09,1.25,1.25,0,0,0-.25.09c-.1.06-.13.05-.17-.07s-.14-.19-.23,0a1.41,1.41,0,0,1-1.12,0c-.08-.09-.14-.08-.33,0a.67.67,0,0,1-.82,0,.41.41,0,0,0-.65,0c-.08.12-.15.17-.27.16l-1.06,0a5.18,5.18,0,0,1-1.06-.1.53.53,0,0,0-.35,0,.67.67,0,0,1-.49,0,2.27,2.27,0,0,0-.62-.07,1,1,0,0,1-.48-.08l-.36-.21c-.1-.06-.21-.08-.24-.05s-.12.12-.19.19-.15.11-.21.05-4-.1-4.84-.05a2.46,2.46,0,0,1-.5-.08.92.92,0,0,0-.5,0,3.14,3.14,0,0,1-.89.06h-1c-.21,0-.27,0-.36-.17s-.27-.26-.75-.31a1.47,1.47,0,0,1-.54-.13.9.9,0,0,0-.58,0,6.79,6.79,0,0,1-1,.07,3.54,3.54,0,0,0-.83.08c-.18.07-.22.06-.31-.09a.26.26,0,0,0-.33-.13c-.69.1-1.4,0-1.5-.2s-.23-.19-.26,0,0,.13-.05.13a1.79,1.79,0,0,0-.07.33,5.86,5.86,0,0,0-.05,1,4.05,4.05,0,0,0,.05,1c.07.36.18.63.24.6s.1,0,.15.1.13.09.24,0,.4-.08.75.1c.15.09.21.09.26,0,.13-.23.3-.28.49-.15a1.62,1.62,0,0,1,.26.22.68.68,0,0,0,.41.09c.31,0,.36,0,.39-.15s.1-.16.7-.13.67,0,.73.16.32.25.45.11.32-.14.59.08a.74.74,0,0,0,.49.19,2.64,2.64,0,0,1,.61.11.78.78,0,0,0,.64,0c.36-.15.56-.16.76,0a5.74,5.74,0,0,0,1.55.11c1.2,0,1.41,0,1.51.14s.27.13.48-.07a4.35,4.35,0,0,1,1.48-.14c.31.06.59,0,.61-.08s.15-.15.23,0a8.19,8.19,0,0,0,2.27.3,4.07,4.07,0,0,1,.91.13.78.78,0,0,0,.89-.08c.19-.23.36-.22.55,0a.44.44,0,0,0,.64.09c.09-.1.14-.09.33,0s.27.14.37.1a8,8,0,0,1,.89-.24l.09.09a.53.53,0,0,0,.64,0c.12-.13.15-.12.36,0s.23.15.35,0,.1-.2.47.07a.24.24,0,0,0,.38-.14c.06-.17.16-.16.21,0s.14.19.18.08.08,0,.16.05.14.09.21-.05.28-.27.36-.07.34.22.61.08c.11-.06.18-.05.25,0s.11.1.15,0c.12-.36.12-.37.19-.12s.11.29.2.1.13-.16.24,0,.34.18.4-.05.13-.23.2,0,.15.22.26,0,.3-.18.44,0,.19.13.51.11.41-.07.44-.14,0-.09.08,0A.65.65,0,0,0,402.41,383.64Z" transform="translate(-214.5 -54.03)"/><path d="M388.36,438.49a.59.59,0,0,0,.2.75c.28.23.29.36.06.65a1.22,1.22,0,0,0-.05,1.16c.08.15.1.26,0,.33a.59.59,0,0,0,0,.39,1.4,1.4,0,0,1-.09.67c-.24.62-.26.74-.1,1a1.25,1.25,0,0,1,.1,1c-.06.23,0,.31.07.4s.19.3,0,.42-.17.28,0,.37.1.1.05.2a.22.22,0,0,0,0,.22,1.65,1.65,0,0,1,.09.54c0,.26,0,.55,0,.65a.45.45,0,0,1-.14.33.41.41,0,0,0-.1.42,2.05,2.05,0,0,1,0,.65.73.73,0,0,0,.17.49c.25.32.54.41,1.35.41a1.69,1.69,0,0,0,.91-.14l.37-.15v-.53c0-.29,0-.69.06-.88a.84.84,0,0,0-.07-.51c-.09-.13-.09-.22,0-.47a1.73,1.73,0,0,0,.12-.44c0-.07,0-.53,0-1a2.28,2.28,0,0,1,.08-1.1.3.3,0,0,0,0-.39c-.16-.25-.16-.8,0-.89s.26-.3.07-.69a5.08,5.08,0,0,1-.39-1,1.09,1.09,0,0,1,.17-.3.72.72,0,0,0,.13-.64,1.63,1.63,0,0,1,.07-.66.47.47,0,0,0,0-.47,6.6,6.6,0,0,1-.15-1.56c0-1.33,0-1.36.15-1.5s.19-.18.15-.66-.07-.54-.2-.62-.2-.28-.1-1.21a2.63,2.63,0,0,0,0-.91.63.63,0,0,1,0-.43.4.4,0,0,0,0-.38.46.46,0,0,1,0-.44.89.89,0,0,0,.1-.36c0-.07,0-.51-.06-1,0-.71,0-.89.1-1a.36.36,0,0,0,.08-.33,1.93,1.93,0,0,1-.09-.38,4.46,4.46,0,0,0-.09-.48c-.06-.21-.05-.27.07-.34a.27.27,0,0,0,0-.45,5.37,5.37,0,0,1,0-2.22c.09-.15.08-.26,0-.65a2.37,2.37,0,0,1,0-1.61,1.37,1.37,0,0,0,0-1.28.73.73,0,0,1-.16-.54c0-.18,0-1.12,0-2.08a19.85,19.85,0,0,1,.1-2.09,2,2,0,0,0,0-.68,2.63,2.63,0,0,1,0-1,8.56,8.56,0,0,0,.07-1.22,3.78,3.78,0,0,1,.08-1c.06-.19.16-.51.21-.7a1,1,0,0,0,.05-.48l-.19-.37a.41.41,0,0,1-.05-.42c.06-.13.1-7.9.05-9.52a9,9,0,0,1,.08-1,3.48,3.48,0,0,0,0-1,12.23,12.23,0,0,1-.06-1.75c0-.86,0-1.79,0-2.06,0-.42,0-.54.17-.7s.26-.53.31-1.48a5.46,5.46,0,0,1,.13-1.07,3.36,3.36,0,0,0,0-1.14c0-.41-.07-1.3-.07-2a13.72,13.72,0,0,0-.08-1.63c-.07-.36-.06-.43.09-.61s.16-.29.13-.65a7.16,7.16,0,0,1,.2-2.95c.18-.18.19-.46,0-.52s-.13-.06-.13-.08-.15-.09-.33-.15a2.74,2.74,0,0,0-1-.1,2,2,0,0,0-1,.11c-.36.13-.63.34-.6.46a.57.57,0,0,1-.1.3.44.44,0,0,0,0,.47,2.59,2.59,0,0,1-.1,1.47c-.09.3-.09.43,0,.51a1,1,0,0,1,.15,1,3.23,3.23,0,0,1-.22.5,2.62,2.62,0,0,0-.09.82c0,.6,0,.7.15.77s.16.2.13,1.38,0,1.31-.16,1.43a.87.87,0,0,0-.11.89,1.26,1.26,0,0,1-.08,1.15,2.47,2.47,0,0,0-.19,1,9.84,9.84,0,0,1-.11,1.21,3,3,0,0,0,0,1.27,2.69,2.69,0,0,1,0,1.49,22.09,22.09,0,0,0-.11,3.06c0,2.36,0,2.77-.14,3a.93.93,0,0,0,.07.94,16.48,16.48,0,0,1,.14,2.9c-.06.63,0,1.17.08,1.22s.15.28,0,.45a30.75,30.75,0,0,0-.3,4.46,15.81,15.81,0,0,1-.13,1.81,2.75,2.75,0,0,0,.08,1.74,1,1,0,0,1,0,1.08,1.5,1.5,0,0,0-.09,1.27c.1.18.09.28,0,.66a1.36,1.36,0,0,0-.1.73c.05.22.24,1.61.24,1.75a.7.7,0,0,1-.09.18,1.89,1.89,0,0,0,0,1.26c.13.22.12.28,0,.7s-.15.46,0,.69.2.21-.07.94a.68.68,0,0,0,.14.74.23.23,0,0,1,0,.41c-.15.08-.19.28-.08.35s0,.16-.05.31-.09.29.05.43.27.54.07.71a1.38,1.38,0,0,0-.08,1.19.56.56,0,0,1,0,.5c-.11.18-.1.21,0,.29.36.23.37.24.12.37s-.29.22-.1.39.16.27,0,.49-.18.67.05.79.23.24,0,.39-.22.29,0,.51a.77.77,0,0,1,0,.88c-.11.17-.13.36-.11,1s.07.81.14.86.09.1,0,.17A.77.77,0,0,0,388.36,438.49Z" transform="translate(-214.5 -54.03)"/><path d="M400.4,452.64c.09.14.22.06.31-.2s.15-.29.27-.06a.28.28,0,0,0,.49.05c.06-.08.11-.1.14,0s.1.06.16,0,.17,0,.28.09c.26.24.31.26.41.1a.28.28,0,0,1,.41-.1c.1.06.13,0,.17-.07s.12-.19.17,0,.12.17.16,0,0-.1.08-.05.07.05.09,0a.38.38,0,0,1,.23-.09l.27,0s.1.05.14.14.09.14.17.1a.4.4,0,0,1,.28,0c.06,0,.13-.05.2-.17A2.87,2.87,0,0,0,405,451a3.76,3.76,0,0,0-.06-.91l-.06-.37h-.22a2.6,2.6,0,0,1-.37-.06.18.18,0,0,0-.21.07c-.06.09-.09.09-.2,0a.48.48,0,0,0-.18-.12l-.44,0c-.28,0-.4,0-.46-.08s-.1-.09-.16,0-.33.16-.37,0-.13-.26-.29-.07a2.1,2.1,0,0,1-.41.39s-.08-.08-.13-.17-.13-.17-.27-.13a.34.34,0,0,1-.28-.07c-.08-.09-.12-.09-.19,0s-.29.12-.65.15c-.56,0-.57,0-.63-.15s-.08-.19-.28-.15-.22.07-.25.2-.12.2-.51.1a.48.48,0,0,0-.38,0,.13.13,0,0,1-.18,0c-.05-.06-.1-.05-.16,0s-.11.07-.18,0-.12-.11-.15-.1l-.41.06c-.3,0-.37,0-.44-.1s-.1-.11-.14-.08a.38.38,0,0,1-.15.09,1,1,0,0,0-.21.09c-.08.06-.11.05-.14-.07s-.12-.19-.18,0-.83.14-.93,0-.11-.08-.27,0a.48.48,0,0,1-.68,0,.3.3,0,0,0-.53,0c-.06.12-.13.17-.23.16l-.87,0a3.59,3.59,0,0,1-.87-.1.34.34,0,0,0-.28,0,.48.48,0,0,1-.41,0,1.57,1.57,0,0,0-.51-.07.7.7,0,0,1-.4-.08l-.29-.21c-.09-.06-.17-.08-.2-.05l-.16.19c-.08.1-.12.11-.18.05s-3.3-.1-4-.05a1.66,1.66,0,0,1-.42-.08.62.62,0,0,0-.41,0,2.16,2.16,0,0,1-.73.06h-.86c-.18,0-.23,0-.29-.17s-.23-.26-.62-.31a1.09,1.09,0,0,1-.45-.13.62.62,0,0,0-.48,0,4.55,4.55,0,0,1-.82.07,2.52,2.52,0,0,0-.69.08c-.15.07-.18.06-.25-.09s-.12-.16-.27-.13c-.57.1-1.16,0-1.24-.2s-.19-.19-.21,0a.26.26,0,0,1,0,.13,2.51,2.51,0,0,0-.06.33,6.19,6.19,0,0,0,0,1,5,5,0,0,0,0,1c.06.36.15.63.2.6s.08,0,.13.1.1.09.19,0,.33-.08.62.1c.12.09.17.09.21,0,.11-.23.25-.28.41-.15a2,2,0,0,1,.21.22.49.49,0,0,0,.34.09c.25,0,.29,0,.32-.15s.08-.16.58-.13.55,0,.6.16.26.25.37.11.26-.14.48.08a.54.54,0,0,0,.4.19,1.81,1.81,0,0,1,.51.11.55.55,0,0,0,.53,0c.29-.15.46-.16.62,0a3.92,3.92,0,0,0,1.28.11c1,0,1.16,0,1.24.14s.22.13.4-.07a2.94,2.94,0,0,1,1.21-.14c.26.06.49,0,.51-.08s.12-.15.19,0a5.59,5.59,0,0,0,1.86.3,2.86,2.86,0,0,1,.76.13.55.55,0,0,0,.73-.08c.15-.23.29-.22.45,0s.39.25.53.09.12-.09.27,0,.22.14.31.1a5.16,5.16,0,0,1,.73-.24s0,0,.07.09.41.11.53,0,.12-.12.29,0,.2.15.29,0,.09-.2.39.07c.13.1.25,0,.31-.14s.13-.16.18,0,.11.19.14.08.07,0,.13.05.12.09.18-.05.23-.27.3-.07.27.22.5.08a.13.13,0,0,1,.21,0c.07.11.08.1.12,0,.09-.36.1-.37.15-.12s.09.29.17.1.11-.16.2,0,.28.18.33-.05.1-.23.16,0,.12.22.21,0,.25-.18.37,0,.15.13.42.11.34-.07.36-.14,0-.09.07,0A.91.91,0,0,0,400.4,452.64Z" transform="translate(-214.5 -54.03)"/><path d="M587.41,89.64c.12.14.27.06.38-.2s.18-.29.33-.06a.37.37,0,0,0,.59.05c.08-.08.13-.1.17,0s.12.06.2,0a.4.4,0,0,1,.34.09c.31.24.37.26.5.1a.37.37,0,0,1,.49-.1c.12.06.16,0,.21-.07s.15-.19.21,0,.14.17.19,0,.05-.1.1,0,.09,0,.11,0a.48.48,0,0,1,.27-.09l.33,0s.13,0,.17.14.11.14.21.1a.56.56,0,0,1,.33,0c.09,0,.17,0,.25-.17s.21-.54.21-1.35a3.23,3.23,0,0,0-.07-.91l-.08-.37h-.27l-.44-.06a.25.25,0,0,0-.26.07c-.07.09-.11.09-.24,0a.6.6,0,0,0-.22-.12l-.53,0c-.34,0-.49,0-.56-.08s-.12-.09-.2,0-.4.16-.45,0-.15-.26-.35-.07a2.14,2.14,0,0,1-.5.39s-.09-.08-.15-.17a.25.25,0,0,0-.33-.13.48.48,0,0,1-.34-.07c-.1-.09-.15-.09-.23,0a1.84,1.84,0,0,1-.79.15c-.68,0-.69,0-.76-.15s-.1-.19-.34-.15-.27.07-.31.2-.14.2-.62.1a.69.69,0,0,0-.46,0,.18.18,0,0,1-.22,0c-.06-.06-.12-.05-.19,0s-.13.07-.22,0-.15-.11-.19-.1l-.5.06c-.36,0-.45,0-.52-.1s-.12-.11-.17-.08a.56.56,0,0,1-.19.09,1.25,1.25,0,0,0-.25.09c-.1.06-.13,0-.17-.07s-.14-.19-.23,0a1.41,1.41,0,0,1-1.12,0c-.08-.09-.14-.08-.33,0a.67.67,0,0,1-.82,0,.41.41,0,0,0-.65,0c-.08.12-.15.17-.27.16l-1.06,0a5.18,5.18,0,0,1-1.06-.1.53.53,0,0,0-.35,0,.67.67,0,0,1-.49,0,2.27,2.27,0,0,0-.62-.07,1,1,0,0,1-.48-.08l-.36-.21c-.1-.06-.21-.08-.24,0l-.19.19c-.09.1-.15.11-.21,0s-4-.1-4.84,0a2.46,2.46,0,0,1-.5-.08.92.92,0,0,0-.5,0,3.14,3.14,0,0,1-.89.06c-.43,0-.9,0-1,0s-.27,0-.36-.17-.27-.26-.75-.31a1.47,1.47,0,0,1-.54-.13.9.9,0,0,0-.58,0,6.79,6.79,0,0,1-1,.07,3.54,3.54,0,0,0-.83.08c-.18.07-.22.06-.31-.09a.26.26,0,0,0-.33-.13c-.69.1-1.4,0-1.5-.2s-.23-.19-.26,0,0,.13,0,.13a1.79,1.79,0,0,0-.07.33,5.86,5.86,0,0,0,0,1,4.05,4.05,0,0,0,0,1c.07.36.18.63.24.6s.1,0,.15.1.13.09.24,0,.4-.08.75.1c.15.09.21.09.26,0s.3-.28.49-.15a1.62,1.62,0,0,1,.26.22.68.68,0,0,0,.41.09c.31,0,.36,0,.39-.15s.1-.16.7-.13.67,0,.73.16.32.25.45.11.32-.14.59.08a.74.74,0,0,0,.49.19,2.64,2.64,0,0,1,.61.11.78.78,0,0,0,.64,0c.36-.15.56-.16.76,0a5.74,5.74,0,0,0,1.55.11c1.2,0,1.41,0,1.51.14s.27.13.48-.07a4.35,4.35,0,0,1,1.48-.14c.31.06.59,0,.61-.08s.15-.15.23,0a8.19,8.19,0,0,0,2.27.3,4.07,4.07,0,0,1,.91.13.78.78,0,0,0,.89-.08c.19-.23.36-.22.55,0a.44.44,0,0,0,.64.09c.09-.1.14-.09.33,0s.27.14.37.1a8,8,0,0,1,.89-.24.34.34,0,0,1,.09.09.53.53,0,0,0,.64,0c.12-.13.15-.12.36,0s.23.15.35,0,.1-.2.47.07a.24.24,0,0,0,.38-.14c.06-.17.16-.16.21,0s.14.19.18.08.08,0,.16,0,.14.09.21,0,.28-.27.36-.07.34.22.61.08c.11-.06.18-.05.25,0s.11.1.15,0c.12-.36.12-.37.19-.12s.11.29.2.1.13-.16.24,0,.34.18.4-.05.13-.23.2,0,.15.22.26,0,.3-.18.44,0,.19.13.51.11.41-.07.44-.14,0-.09.08,0A.65.65,0,0,0,587.41,89.64Z" transform="translate(-214.5 -54.03)"/><path d="M573.36,144.49a.59.59,0,0,0,.2.75c.28.23.29.36.06.65a1.22,1.22,0,0,0,0,1.16c.08.15.1.26,0,.33a.59.59,0,0,0,0,.39,1.4,1.4,0,0,1-.09.67c-.24.62-.26.74-.1,1a1.25,1.25,0,0,1,.1,1c-.06.23,0,.31.07.4s.19.3,0,.42-.17.28,0,.37.1.1.05.2a.22.22,0,0,0,0,.22,1.65,1.65,0,0,1,.09.54c0,.26,0,.55,0,.65a.45.45,0,0,1-.14.33.41.41,0,0,0-.1.42,2.05,2.05,0,0,1,0,.65.73.73,0,0,0,.17.49c.25.32.54.41,1.35.41a1.69,1.69,0,0,0,.91-.14l.37-.15v-.53c0-.29,0-.69.06-.88a.84.84,0,0,0-.07-.51c-.09-.13-.09-.22,0-.47a1.73,1.73,0,0,0,.12-.44c0-.07,0-.53-.05-1a2.28,2.28,0,0,1,.08-1.1.3.3,0,0,0,0-.39c-.16-.25-.16-.8,0-.89s.26-.3.07-.69a5.08,5.08,0,0,1-.39-1,1.09,1.09,0,0,1,.17-.3.72.72,0,0,0,.13-.64,1.63,1.63,0,0,1,.07-.66.47.47,0,0,0,0-.47,6.6,6.6,0,0,1-.15-1.56c0-1.33,0-1.36.15-1.5s.19-.18.15-.66-.07-.54-.2-.62-.2-.28-.1-1.21a2.63,2.63,0,0,0,0-.91.63.63,0,0,1,0-.43.4.4,0,0,0,0-.38.46.46,0,0,1,0-.44.89.89,0,0,0,.1-.36c0-.07,0-.51-.06-1,0-.71,0-.89.1-1a.36.36,0,0,0,.08-.33,1.93,1.93,0,0,1-.09-.38,4.46,4.46,0,0,0-.09-.48c-.06-.21,0-.27.07-.34a.27.27,0,0,0,0-.45,5.37,5.37,0,0,1,0-2.22c.09-.15.08-.26,0-.65a2.37,2.37,0,0,1,0-1.61,1.37,1.37,0,0,0,0-1.28.73.73,0,0,1-.16-.54c0-.18,0-1.12,0-2.08a19.85,19.85,0,0,1,.1-2.09,2,2,0,0,0,0-.68,2.63,2.63,0,0,1,0-1,8.56,8.56,0,0,0,.07-1.22,3.78,3.78,0,0,1,.08-1c.06-.19.16-.51.21-.7a1,1,0,0,0,0-.48l-.19-.37a.41.41,0,0,1-.05-.42c.06-.13.1-7.9.05-9.52a9,9,0,0,1,.08-1,3.48,3.48,0,0,0,0-1,12.23,12.23,0,0,1-.06-1.75c0-.86,0-1.79,0-2.06,0-.42,0-.54.17-.7s.26-.53.31-1.48a5.46,5.46,0,0,1,.13-1.07,3.36,3.36,0,0,0,0-1.14c0-.41-.07-1.3-.07-2a13.72,13.72,0,0,0-.08-1.63c-.07-.36-.06-.43.09-.61s.16-.29.13-.65a7.16,7.16,0,0,1,.2-3c.18-.18.19-.46,0-.52s-.13-.06-.13-.08-.15-.09-.33-.15a2.74,2.74,0,0,0-1-.1,2,2,0,0,0-1,.11c-.36.13-.63.34-.6.46a.57.57,0,0,1-.1.3.44.44,0,0,0,0,.47,2.59,2.59,0,0,1-.1,1.47c-.09.3-.09.43,0,.51a1,1,0,0,1,.15,1,3.23,3.23,0,0,1-.22.5,2.62,2.62,0,0,0-.09.82c0,.6,0,.7.15.77s.16.2.13,1.38,0,1.31-.16,1.43a.87.87,0,0,0-.11.89,1.26,1.26,0,0,1-.08,1.15,2.47,2.47,0,0,0-.19,1,9.84,9.84,0,0,1-.11,1.21,3,3,0,0,0,0,1.27,2.69,2.69,0,0,1,0,1.49,22.09,22.09,0,0,0-.11,3.06c0,2.36,0,2.77-.14,3a.93.93,0,0,0,.07.94,16.48,16.48,0,0,1,.14,2.9c-.06.63,0,1.17.08,1.22s.15.28,0,.45a30.75,30.75,0,0,0-.3,4.46,15.81,15.81,0,0,1-.13,1.81,2.75,2.75,0,0,0,.08,1.74,1,1,0,0,1,0,1.08,1.5,1.5,0,0,0-.09,1.27c.1.18.09.28,0,.66a1.36,1.36,0,0,0-.1.73c.05.22.24,1.61.24,1.75a.7.7,0,0,1-.09.18,1.89,1.89,0,0,0,0,1.26c.13.22.12.28,0,.7s-.15.46,0,.69.2.21-.07.94a.68.68,0,0,0,.14.74.23.23,0,0,1,0,.41c-.15.08-.19.28-.08.35s0,.16-.05.31-.09.29.05.43.27.54.07.71a1.38,1.38,0,0,0-.08,1.19.56.56,0,0,1,0,.5c-.11.18-.1.21,0,.29.36.23.37.24.12.37s-.29.22-.1.39.16.27,0,.49-.18.67,0,.79.23.24,0,.39-.22.29,0,.51a.77.77,0,0,1,0,.88c-.11.17-.13.36-.11,1s.07.81.14.86.09.1,0,.17A.77.77,0,0,0,573.36,144.49Z" transform="translate(-214.5 -54.03)"/><path d="M585.4,158.64c.09.14.22.06.31-.2s.15-.29.27-.06a.28.28,0,0,0,.49.05c.06-.08.11-.1.14,0s.1.06.16,0,.17,0,.28.09c.26.24.31.26.41.1a.28.28,0,0,1,.41-.1c.1.06.13,0,.17-.07s.12-.19.17,0,.12.17.16,0,0-.1.08-.05.07.05.09,0a.38.38,0,0,1,.23-.09l.27,0s.1.05.14.14.09.14.17.1a.4.4,0,0,1,.28,0c.06,0,.13,0,.2-.17A2.87,2.87,0,0,0,590,157a3.76,3.76,0,0,0-.06-.91l-.06-.37h-.22a2.6,2.6,0,0,1-.37-.06.18.18,0,0,0-.21.07c-.06.09-.09.09-.2,0a.48.48,0,0,0-.18-.12l-.44.05c-.28,0-.4,0-.46-.08s-.1-.09-.16,0-.33.16-.37,0-.13-.26-.29-.07a2.1,2.1,0,0,1-.41.39s-.08-.08-.13-.17-.13-.17-.27-.13a.34.34,0,0,1-.28-.07c-.08-.09-.12-.09-.19,0s-.29.12-.65.15c-.56,0-.57,0-.63-.15s-.08-.19-.28-.15-.22.07-.25.2-.12.2-.51.1a.48.48,0,0,0-.38,0,.13.13,0,0,1-.18,0c-.05-.06-.1-.05-.16,0s-.11.07-.18,0-.12-.11-.15-.1l-.41.06c-.3,0-.37,0-.44-.1s-.1-.11-.14-.08a.38.38,0,0,1-.15.09,1,1,0,0,0-.21.09c-.08.06-.11,0-.14-.07s-.12-.19-.18,0-.83.14-.93,0-.11-.08-.27,0a.48.48,0,0,1-.68,0,.3.3,0,0,0-.53,0c-.06.12-.13.17-.23.16l-.87,0a3.59,3.59,0,0,1-.87-.1.34.34,0,0,0-.28,0,.48.48,0,0,1-.41,0,1.57,1.57,0,0,0-.51-.07.7.7,0,0,1-.4-.08l-.29-.21c-.09-.06-.17-.08-.2,0l-.16.19c-.08.1-.12.11-.18.05s-3.3-.1-4-.05a1.66,1.66,0,0,1-.42-.08.62.62,0,0,0-.41,0,2.16,2.16,0,0,1-.73.06h-.86c-.18,0-.23,0-.29-.17s-.23-.26-.62-.31a1.09,1.09,0,0,1-.45-.13.62.62,0,0,0-.48,0,4.55,4.55,0,0,1-.82.07,2.52,2.52,0,0,0-.69.08c-.15.07-.18.06-.25-.09s-.12-.16-.27-.13c-.57.1-1.16,0-1.24-.2s-.19-.19-.21,0a.26.26,0,0,1,0,.13,2.51,2.51,0,0,0-.06.33,6.19,6.19,0,0,0,0,1,5,5,0,0,0,0,1c.06.36.15.63.2.6s.08,0,.13.1.1.09.19,0,.33-.08.62.1c.12.09.17.09.21,0s.25-.28.41-.15a2,2,0,0,1,.21.22.49.49,0,0,0,.34.09c.25,0,.29,0,.32-.15s.08-.16.58-.13.55.05.6.16.26.25.37.11.26-.14.48.08a.54.54,0,0,0,.4.19,1.81,1.81,0,0,1,.51.11.55.55,0,0,0,.53,0c.29-.15.46-.16.62,0a3.92,3.92,0,0,0,1.28.11c1,0,1.16,0,1.24.14s.22.13.4-.07a2.94,2.94,0,0,1,1.21-.14c.26.06.49,0,.51-.08s.12-.15.19,0a5.59,5.59,0,0,0,1.86.3,2.86,2.86,0,0,1,.76.13.55.55,0,0,0,.73-.08c.15-.23.29-.22.45,0s.39.25.53.09.12-.09.27,0,.22.14.31.1a5.16,5.16,0,0,1,.73-.24s0,0,.07.09.41.11.53,0,.12-.12.29,0,.2.15.29,0,.09-.2.39.07c.13.1.25,0,.31-.14s.13-.16.18,0,.11.19.14.08.07,0,.13.05.12.09.18-.05.23-.27.3-.07.27.22.5.08a.13.13,0,0,1,.21,0c.07.11.08.1.12,0,.09-.36.1-.37.15-.12s.09.29.17.1.11-.16.2,0,.28.18.33-.05.1-.23.16,0,.12.22.21,0,.25-.18.37,0,.15.13.42.11.34-.07.36-.14,0-.09.07,0A.91.91,0,0,0,585.4,158.64Z" transform="translate(-214.5 -54.03)"/></svg>